# xmcd
#
# Track frame offsets: 
#        175
#        16025
#        29000
#        50527
#        64750
#        80012
#        95800
#        114087
#        131315
#        151140
#        172277
#        191900
#        213837
#
# Disc length: 3096 seconds
#
# Revision: 0
# Processed by: cddbd v1.5.1PL0 Copyright (c) Steve Scherf et al.
# Submitted via: ExactAudioCopy v0.95a3
#
DISCID=ae0c160d
DTITLE=Various Artist - Песня '95. Часть 1
DYEAR=1995
DGENRE=Pop
TTITLE0=Ленонид Агутин - Пароход
TTITLE1=Дюна - Борька-Бабник
TTITLE2=Дмитрий Маликов - Выпью До Дня
TTITLE3=Наташа Королёва - Конфетти
TTITLE4=Лариса Долина - До Свидания
TTITLE5=Лев Лещенко - Моя И Близкая, И Дальняя
TTITLE6=Академия - Догги
TTITLE7=Валерий Меладзе - Сэра
TTITLE8=Александр Буйнов - Я Знал Любовь
TTITLE9=Эдита Пьеха - Россия
TTITLE10=Лайма Вайкуле - В Заброшенной Теверне
TTITLE11=Вячеслав Добрынин - Я Боюсь Твоей Любви
TTITLE12=София Ротару - Остров Любви
EXTD=
EXTT0=
EXTT1=
EXTT2=
EXTT3=
EXTT4=
EXTT5=
EXTT6=
EXTT7=
EXTT8=
EXTT9=
EXTT10=
EXTT11=
EXTT12=
PLAYORDER=
